<svg xmlns="http://www.w3.org/2000/svg" xmlns:xlink="http://www.w3.org/1999/xlink" width="500" zoomAndPan="magnify" viewBox="0 0 375 374.999991" height="500" preserveAspectRatio="xMidYMid meet" version="1.0"><defs><clipPath id="70b70c9e27"><path d="M 187.5 0 C 83.945312 0 0 83.945312 0 187.5 C 0 291.054688 83.945312 375 187.5 375 C 291.054688 375 375 291.054688 375 187.5 C 375 83.945312 291.054688 0 187.5 0 Z M 187.5 0 " clip-rule="nonzero"/></clipPath><clipPath id="923f8b2ee3"><path d="M 79.878906 79.878906 L 295.128906 79.878906 L 295.128906 295.128906 L 79.878906 295.128906 Z M 79.878906 79.878906 " clip-rule="nonzero"/></clipPath></defs><g clip-path="url(#70b70c9e27)"><rect x="-37.5" width="450" fill="#eeeeee" y="-37.499999" height="449.999989" fill-opacity="1"/></g><g clip-path="url(#923f8b2ee3)"><path fill="#155263" d="M 107.992188 111.464844 L 107.992188 170.148438 C 107.992188 172.066406 109.550781 173.621094 111.464844 173.621094 L 170.148438 173.621094 C 172.066406 173.621094 173.621094 172.066406 173.621094 170.148438 L 173.621094 111.464844 C 173.621094 109.550781 172.066406 107.992188 170.148438 107.992188 L 111.464844 107.992188 C 109.542969 107.992188 107.992188 109.542969 107.992188 111.464844 Z M 114.929688 114.929688 L 166.671875 114.929688 L 166.671875 166.671875 L 114.929688 166.671875 Z M 79.878906 121.042969 L 79.878906 83.347656 C 79.878906 81.433594 81.433594 79.878906 83.347656 79.878906 L 121.042969 79.878906 C 122.957031 79.878906 124.511719 81.433594 124.511719 83.347656 C 124.511719 85.265625 122.957031 86.820312 121.042969 86.820312 L 86.820312 86.820312 L 86.820312 121.042969 C 86.820312 122.957031 85.265625 124.511719 83.347656 124.511719 C 81.433594 124.511719 79.878906 122.957031 79.878906 121.042969 Z M 250.480469 83.347656 C 250.480469 81.433594 252.035156 79.878906 253.953125 79.878906 L 291.644531 79.878906 C 293.5625 79.878906 295.117188 81.433594 295.117188 83.347656 L 295.117188 121.042969 C 295.117188 122.957031 293.5625 124.511719 291.644531 124.511719 C 289.730469 124.511719 288.175781 122.957031 288.175781 121.042969 L 288.175781 86.820312 L 253.953125 86.820312 C 252.035156 86.820312 250.480469 85.265625 250.480469 83.347656 Z M 124.511719 291.644531 C 124.511719 293.5625 122.957031 295.117188 121.042969 295.117188 L 83.347656 295.117188 C 81.433594 295.117188 79.878906 293.5625 79.878906 291.644531 L 79.878906 253.953125 C 79.878906 252.035156 81.433594 250.480469 83.347656 250.480469 C 85.265625 250.480469 86.820312 252.035156 86.820312 253.953125 L 86.820312 288.175781 L 121.042969 288.175781 C 122.957031 288.175781 124.511719 289.730469 124.511719 291.644531 Z M 295.117188 253.953125 L 295.117188 291.644531 C 295.117188 293.5625 293.5625 295.117188 291.644531 295.117188 L 253.953125 295.117188 C 252.035156 295.117188 250.480469 293.5625 250.480469 291.644531 C 250.480469 289.730469 252.035156 288.175781 253.953125 288.175781 L 288.175781 288.175781 L 288.175781 253.953125 C 288.175781 252.035156 289.730469 250.480469 291.644531 250.480469 C 293.5625 250.480469 295.117188 252.035156 295.117188 253.953125 Z M 204.847656 173.621094 L 263.53125 173.621094 C 265.445312 173.621094 267 172.066406 267 170.148438 L 267 111.464844 C 267 109.550781 265.445312 107.992188 263.53125 107.992188 L 204.847656 107.992188 C 202.929688 107.992188 201.375 109.550781 201.375 111.464844 L 201.375 170.148438 C 201.375 172.066406 202.929688 173.621094 204.847656 173.621094 Z M 208.316406 114.929688 L 260.058594 114.929688 L 260.058594 166.671875 L 208.316406 166.671875 Z M 170.148438 201.375 L 111.464844 201.375 C 109.550781 201.375 107.992188 202.929688 107.992188 204.847656 L 107.992188 263.53125 C 107.992188 265.445312 109.550781 267 111.464844 267 L 170.148438 267 C 172.066406 267 173.621094 265.445312 173.621094 263.53125 L 173.621094 204.847656 C 173.621094 202.929688 172.066406 201.375 170.148438 201.375 Z M 166.679688 260.066406 L 114.929688 260.066406 L 114.929688 208.320312 L 166.671875 208.320312 L 166.671875 260.066406 Z M 215.167969 249.738281 L 204.847656 249.738281 C 202.929688 249.738281 201.375 251.292969 201.375 253.210938 L 201.375 263.53125 C 201.375 265.445312 202.929688 267 204.847656 267 L 215.167969 267 C 217.082031 267 218.636719 265.445312 218.636719 263.53125 L 218.636719 253.210938 C 218.636719 251.292969 217.085938 249.738281 215.167969 249.738281 Z M 211.695312 260.066406 L 208.316406 260.066406 L 208.316406 256.6875 L 211.695312 256.6875 Z M 190.96875 111.464844 L 190.96875 111.503906 C 190.96875 113.417969 189.414062 114.972656 187.496094 114.972656 C 185.582031 114.972656 184.027344 113.417969 184.027344 111.503906 L 184.027344 111.464844 C 184.027344 109.550781 185.582031 107.992188 187.496094 107.992188 C 189.414062 107.992188 190.96875 109.542969 190.96875 111.464844 Z M 190.96875 123.847656 L 190.96875 170.148438 C 190.96875 172.066406 189.414062 173.621094 187.496094 173.621094 C 185.582031 173.621094 184.027344 172.066406 184.027344 170.148438 L 184.027344 123.847656 C 184.027344 121.929688 185.582031 120.375 187.496094 120.375 C 189.414062 120.375 190.96875 121.929688 190.96875 123.847656 Z M 190.96875 187.476562 L 190.96875 187.515625 C 190.96875 189.429688 189.414062 190.984375 187.496094 190.984375 C 185.582031 190.984375 184.027344 189.429688 184.027344 187.515625 L 184.027344 187.476562 C 184.027344 185.558594 185.582031 184.003906 187.496094 184.003906 C 189.414062 184.003906 190.96875 185.558594 190.96875 187.476562 Z M 190.96875 263.492188 L 190.96875 263.53125 C 190.96875 265.445312 189.414062 267 187.496094 267 C 185.582031 267 184.027344 265.445312 184.027344 263.53125 L 184.027344 263.492188 C 184.027344 261.578125 185.582031 260.023438 187.496094 260.023438 C 189.414062 260.023438 190.96875 261.578125 190.96875 263.492188 Z M 190.96875 204.847656 L 190.96875 251.148438 C 190.96875 253.066406 189.414062 254.621094 187.496094 254.621094 C 185.582031 254.621094 184.027344 253.066406 184.027344 251.148438 L 184.027344 204.847656 C 184.027344 202.929688 185.582031 201.375 187.496094 201.375 C 189.414062 201.375 190.96875 202.929688 190.96875 204.847656 Z M 111.503906 184.027344 C 113.417969 184.027344 114.972656 185.582031 114.972656 187.496094 C 114.972656 189.414062 113.417969 190.96875 111.503906 190.96875 L 111.464844 190.96875 C 109.550781 190.96875 107.992188 189.414062 107.992188 187.496094 C 107.992188 185.582031 109.550781 184.027344 111.464844 184.027344 Z M 173.621094 187.496094 C 173.621094 189.414062 172.066406 190.96875 170.148438 190.96875 L 123.847656 190.96875 C 121.929688 190.96875 120.375 189.414062 120.375 187.496094 C 120.375 185.582031 121.929688 184.027344 123.847656 184.027344 L 170.148438 184.027344 C 172.066406 184.027344 173.621094 185.582031 173.621094 187.496094 Z M 267 187.496094 C 267 189.414062 265.445312 190.96875 263.53125 190.96875 L 263.492188 190.96875 C 261.578125 190.96875 260.023438 189.414062 260.023438 187.496094 C 260.023438 185.582031 261.578125 184.027344 263.492188 184.027344 L 263.53125 184.027344 C 265.453125 184.027344 267 185.582031 267 187.496094 Z M 251.148438 190.96875 L 204.847656 190.96875 C 202.929688 190.96875 201.375 189.414062 201.375 187.496094 C 201.375 185.582031 202.929688 184.027344 204.847656 184.027344 L 251.148438 184.027344 C 253.066406 184.027344 254.621094 185.582031 254.621094 187.496094 C 254.621094 189.414062 253.066406 190.96875 251.148438 190.96875 Z M 153.679688 131.402344 L 153.679688 150.207031 C 153.679688 152.125 152.125 153.679688 150.207031 153.679688 L 131.402344 153.679688 C 129.484375 153.679688 127.929688 152.125 127.929688 150.207031 L 127.929688 131.402344 C 127.929688 129.484375 129.484375 127.929688 131.402344 127.929688 L 150.207031 127.929688 C 152.125 127.929688 153.679688 129.484375 153.679688 131.402344 Z M 247.066406 131.402344 L 247.066406 150.207031 C 247.066406 152.125 245.507812 153.679688 243.59375 153.679688 L 224.789062 153.679688 C 222.871094 153.679688 221.316406 152.125 221.316406 150.207031 L 221.316406 131.402344 C 221.316406 129.484375 222.871094 127.929688 224.789062 127.929688 L 243.59375 127.929688 C 245.507812 127.929688 247.066406 129.484375 247.066406 131.402344 Z M 127.929688 243.59375 L 127.929688 224.789062 C 127.929688 222.871094 129.484375 221.316406 131.402344 221.316406 L 150.207031 221.316406 C 152.125 221.316406 153.679688 222.871094 153.679688 224.789062 L 153.679688 243.59375 C 153.679688 245.507812 152.125 247.066406 150.207031 247.066406 L 131.402344 247.066406 C 129.484375 247.066406 127.929688 245.507812 127.929688 243.59375 Z M 201.375 215.324219 L 201.375 204.851562 C 201.375 202.9375 202.929688 201.378906 204.847656 201.378906 C 206.761719 201.378906 208.316406 202.9375 208.316406 204.851562 L 208.316406 215.324219 C 208.316406 217.238281 206.761719 218.792969 204.847656 218.792969 C 202.929688 218.792969 201.375 217.238281 201.375 215.324219 Z M 219.34375 208.316406 L 219.34375 215.324219 C 219.34375 217.234375 217.792969 218.777344 215.886719 218.777344 C 213.976562 218.777344 212.433594 217.226562 212.433594 215.324219 L 212.433594 204.847656 C 212.433594 202.9375 213.984375 201.390625 215.886719 201.390625 C 215.988281 201.390625 216.085938 201.398438 216.1875 201.40625 C 216.324219 201.390625 216.464844 201.378906 216.601562 201.378906 L 228.753906 201.378906 C 230.667969 201.378906 232.222656 202.9375 232.222656 204.851562 C 232.222656 206.765625 230.667969 208.320312 228.753906 208.320312 L 219.34375 208.320312 Z M 267 204.847656 L 267 263.53125 C 267 265.445312 265.445312 267 263.53125 267 C 261.613281 267 260.058594 265.445312 260.058594 263.53125 L 260.058594 204.847656 C 260.058594 202.929688 261.613281 201.375 263.53125 201.375 C 265.453125 201.375 267 202.929688 267 204.847656 Z M 201.375 225.273438 L 201.375 225.234375 C 201.375 223.320312 202.929688 221.761719 204.847656 221.761719 C 206.761719 221.761719 208.316406 223.320312 208.316406 225.234375 L 208.316406 225.273438 C 208.316406 227.1875 206.761719 228.742188 204.847656 228.742188 C 202.929688 228.742188 201.375 227.1875 201.375 225.273438 Z M 232.21875 215.28125 L 232.21875 215.316406 C 232.21875 217.234375 230.664062 218.789062 228.75 218.789062 C 226.832031 218.789062 225.277344 217.234375 225.277344 215.316406 L 225.277344 215.28125 C 225.277344 213.363281 226.832031 211.808594 228.75 211.808594 C 230.664062 211.808594 232.21875 213.363281 232.21875 215.28125 Z M 256.039062 204.847656 C 256.039062 206.761719 254.484375 208.316406 252.570312 208.316406 L 240.515625 208.316406 C 238.601562 208.316406 237.046875 206.761719 237.046875 204.847656 C 237.046875 202.929688 238.601562 201.375 240.515625 201.375 L 252.570312 201.375 C 254.484375 201.375 256.039062 202.929688 256.039062 204.847656 Z M 201.375 242.925781 L 201.375 235.84375 C 201.375 233.929688 202.929688 232.375 204.847656 232.375 C 206.761719 232.375 208.316406 233.929688 208.316406 235.84375 L 208.316406 242.925781 C 208.316406 244.84375 206.761719 246.398438 204.847656 246.398438 C 202.929688 246.398438 201.375 244.84375 201.375 242.925781 Z M 252.570312 267 L 240.515625 267 C 238.601562 267 237.046875 265.445312 237.046875 263.53125 C 237.046875 261.613281 238.601562 260.058594 240.515625 260.058594 L 252.570312 260.058594 C 254.484375 260.058594 256.039062 261.613281 256.039062 263.53125 C 256.039062 265.445312 254.484375 267 252.570312 267 Z M 237.046875 253.214844 C 237.046875 251.300781 238.601562 249.746094 240.515625 249.746094 L 252.570312 249.746094 C 254.484375 249.746094 256.039062 251.300781 256.039062 253.214844 C 256.039062 255.132812 254.484375 256.6875 252.570312 256.6875 L 240.515625 256.6875 C 238.601562 256.6875 237.046875 255.132812 237.046875 253.214844 Z M 236.253906 225.234375 C 236.253906 227.148438 234.699219 228.703125 232.785156 228.703125 L 224.839844 228.703125 C 222.925781 228.703125 221.371094 227.148438 221.371094 225.234375 C 221.371094 223.320312 222.925781 221.761719 224.839844 221.761719 L 232.785156 221.761719 C 234.699219 221.761719 236.253906 223.320312 236.253906 225.234375 Z M 230.089844 263.492188 L 230.089844 263.53125 C 230.089844 265.445312 228.53125 267 226.617188 267 C 224.703125 267 223.144531 265.445312 223.144531 263.53125 L 223.144531 263.492188 C 223.144531 261.578125 224.703125 260.023438 226.617188 260.023438 C 228.539062 260.023438 230.089844 261.578125 230.089844 263.492188 Z M 230.089844 253.195312 L 230.089844 253.230469 C 230.089844 255.148438 228.53125 256.703125 226.617188 256.703125 C 224.703125 256.703125 223.144531 255.148438 223.144531 253.230469 L 223.144531 253.195312 C 223.144531 251.277344 224.703125 249.722656 226.617188 249.722656 C 228.539062 249.722656 230.089844 251.277344 230.089844 253.195312 Z M 218.636719 242.890625 L 218.636719 242.925781 C 218.636719 244.84375 217.082031 246.398438 215.167969 246.398438 C 213.25 246.398438 211.695312 244.84375 211.695312 242.925781 L 211.695312 242.890625 C 211.695312 240.972656 213.25 239.417969 215.167969 239.417969 C 217.082031 239.417969 218.636719 240.972656 218.636719 242.890625 Z M 218.636719 234.046875 C 218.636719 235.964844 217.082031 237.519531 215.167969 237.519531 C 213.25 237.519531 211.695312 235.964844 211.695312 234.046875 C 211.695312 232.128906 213.25 230.578125 215.167969 230.578125 C 217.082031 230.570312 218.636719 232.128906 218.636719 234.046875 Z M 218.636719 225.273438 C 218.636719 227.1875 217.082031 228.742188 215.167969 228.742188 C 213.25 228.742188 211.695312 227.1875 211.695312 225.273438 L 211.695312 225.234375 C 211.695312 223.320312 213.25 221.761719 215.167969 221.761719 C 217.082031 221.761719 218.636719 223.320312 218.636719 225.234375 Z M 252.5625 218.792969 C 250.648438 218.792969 249.09375 217.238281 249.09375 215.324219 L 249.09375 215.285156 C 249.09375 213.371094 250.648438 211.8125 252.5625 211.8125 C 254.480469 211.8125 256.035156 213.371094 256.035156 215.285156 L 256.035156 215.324219 C 256.035156 217.238281 254.480469 218.792969 252.5625 218.792969 Z M 234.257812 215.28125 C 234.257812 213.363281 235.8125 211.808594 237.730469 211.808594 L 242.65625 211.808594 C 244.574219 211.808594 246.128906 213.363281 246.128906 215.28125 C 246.128906 217.195312 244.574219 218.75 242.65625 218.75 L 237.730469 218.75 C 235.8125 218.75 234.257812 217.195312 234.257812 215.28125 Z M 256.039062 225.234375 C 256.039062 223.320312 254.484375 221.761719 252.570312 221.761719 L 242.25 221.761719 C 240.332031 221.761719 238.777344 223.320312 238.777344 225.234375 L 238.777344 235.554688 C 238.777344 237.46875 240.332031 239.027344 242.25 239.027344 L 252.570312 239.027344 C 254.484375 239.027344 256.039062 237.46875 256.039062 235.554688 Z M 249.097656 232.085938 L 245.71875 232.085938 L 245.71875 228.703125 L 249.097656 228.703125 Z M 236.253906 234.394531 C 236.253906 236.308594 234.699219 237.863281 232.785156 237.863281 L 224.839844 237.863281 C 222.925781 237.863281 221.371094 236.308594 221.371094 234.394531 C 221.371094 232.476562 222.925781 230.921875 224.839844 230.921875 L 232.785156 230.921875 C 234.699219 230.921875 236.253906 232.476562 236.253906 234.394531 Z M 236.253906 242.925781 C 236.253906 244.84375 234.699219 246.398438 232.785156 246.398438 L 224.839844 246.398438 C 222.925781 246.398438 221.371094 244.84375 221.371094 242.925781 C 221.371094 241.011719 222.925781 239.457031 224.839844 239.457031 L 232.785156 239.457031 C 234.699219 239.457031 236.253906 241.011719 236.253906 242.925781 Z M 242.25 247.554688 C 240.332031 247.554688 238.777344 246 238.777344 244.082031 L 238.777344 244.046875 C 238.777344 242.128906 240.332031 240.574219 242.25 240.574219 C 244.164062 240.574219 245.71875 242.128906 245.71875 244.046875 L 245.71875 244.082031 C 245.71875 246 244.164062 247.554688 242.25 247.554688 Z M 252.5625 247.554688 C 250.648438 247.554688 249.09375 246 249.09375 244.082031 L 249.09375 244.046875 C 249.09375 242.128906 250.648438 240.574219 252.5625 240.574219 C 254.480469 240.574219 256.035156 242.128906 256.035156 244.046875 L 256.035156 244.082031 C 256.035156 246 254.480469 247.554688 252.5625 247.554688 Z M 252.5625 247.554688 " fill-opacity="1" fill-rule="nonzero"/></g></svg>