<svg xmlns="http://www.w3.org/2000/svg" xmlns:xlink="http://www.w3.org/1999/xlink" width="500" zoomAndPan="magnify" viewBox="0 0 375 374.999991" height="500" preserveAspectRatio="xMidYMid meet" version="1.0"><defs><clipPath id="4a1ba0492c"><path d="M 37.5 40.351562 L 331.5 40.351562 L 331.5 334.351562 L 37.5 334.351562 Z M 37.5 40.351562 " clip-rule="nonzero"/></clipPath></defs><g clip-path="url(#4a1ba0492c)"><path fill="#eeeeee" d="M 75.941406 83.539062 L 75.941406 163.777344 C 75.941406 166.394531 78.066406 168.523438 80.6875 168.523438 L 160.925781 168.523438 C 163.546875 168.523438 165.671875 166.394531 165.671875 163.777344 L 165.671875 83.539062 C 165.671875 80.917969 163.546875 78.792969 160.925781 78.792969 L 80.6875 78.792969 C 78.0625 78.792969 75.941406 80.910156 75.941406 83.539062 Z M 85.425781 88.277344 L 156.171875 88.277344 L 156.171875 159.023438 L 85.425781 159.023438 Z M 37.5 96.632812 L 37.5 45.097656 C 37.5 42.476562 39.625 40.351562 42.246094 40.351562 L 93.785156 40.351562 C 96.402344 40.351562 98.527344 42.476562 98.527344 45.097656 C 98.527344 47.714844 96.402344 49.839844 93.785156 49.839844 L 46.992188 49.839844 L 46.992188 96.632812 C 46.992188 99.253906 44.863281 101.378906 42.246094 101.378906 C 39.625 101.378906 37.5 99.253906 37.5 96.632812 Z M 270.765625 45.097656 C 270.765625 42.476562 272.890625 40.351562 275.507812 40.351562 L 327.046875 40.351562 C 329.667969 40.351562 331.792969 42.476562 331.792969 45.097656 L 331.792969 96.632812 C 331.792969 99.253906 329.667969 101.378906 327.046875 101.378906 C 324.429688 101.378906 322.300781 99.253906 322.300781 96.632812 L 322.300781 49.839844 L 275.507812 49.839844 C 272.890625 49.839844 270.765625 47.714844 270.765625 45.097656 Z M 98.527344 329.898438 C 98.527344 332.515625 96.402344 334.644531 93.785156 334.644531 L 42.246094 334.644531 C 39.625 334.644531 37.5 332.515625 37.5 329.898438 L 37.5 278.359375 C 37.5 275.742188 39.625 273.613281 42.246094 273.613281 C 44.863281 273.613281 46.992188 275.742188 46.992188 278.359375 L 46.992188 325.152344 L 93.785156 325.152344 C 96.402344 325.152344 98.527344 327.277344 98.527344 329.898438 Z M 331.792969 278.359375 L 331.792969 329.898438 C 331.792969 332.515625 329.667969 334.644531 327.046875 334.644531 L 275.507812 334.644531 C 272.890625 334.644531 270.765625 332.515625 270.765625 329.898438 C 270.765625 327.277344 272.890625 325.152344 275.507812 325.152344 L 322.300781 325.152344 L 322.300781 278.359375 C 322.300781 275.742188 324.429688 273.613281 327.046875 273.613281 C 329.667969 273.613281 331.792969 275.742188 331.792969 278.359375 Z M 208.367188 168.523438 L 288.605469 168.523438 C 291.226562 168.523438 293.351562 166.394531 293.351562 163.777344 L 293.351562 83.539062 C 293.351562 80.917969 291.226562 78.792969 288.605469 78.792969 L 208.367188 78.792969 C 205.746094 78.792969 203.621094 80.917969 203.621094 83.539062 L 203.621094 163.777344 C 203.621094 166.394531 205.746094 168.523438 208.367188 168.523438 Z M 213.113281 88.277344 L 283.859375 88.277344 L 283.859375 159.023438 L 213.113281 159.023438 Z M 160.925781 206.472656 L 80.6875 206.472656 C 78.066406 206.472656 75.941406 208.597656 75.941406 211.21875 L 75.941406 291.457031 C 75.941406 294.074219 78.066406 296.203125 80.6875 296.203125 L 160.925781 296.203125 C 163.546875 296.203125 165.671875 294.074219 165.671875 291.457031 L 165.671875 211.21875 C 165.671875 208.597656 163.546875 206.472656 160.925781 206.472656 Z M 156.179688 286.71875 L 85.425781 286.71875 L 85.425781 215.96875 L 156.171875 215.96875 L 156.171875 286.71875 Z M 222.476562 272.597656 L 208.367188 272.597656 C 205.746094 272.597656 203.621094 274.726562 203.621094 277.34375 L 203.621094 291.457031 C 203.621094 294.074219 205.746094 296.203125 208.367188 296.203125 L 222.476562 296.203125 C 225.097656 296.203125 227.222656 294.074219 227.222656 291.457031 L 227.222656 277.34375 C 227.222656 274.726562 225.105469 272.597656 222.476562 272.597656 Z M 217.730469 286.71875 L 213.113281 286.71875 L 213.113281 282.097656 L 217.730469 282.097656 Z M 189.390625 83.539062 L 189.390625 83.589844 C 189.390625 86.207031 187.265625 88.335938 184.644531 88.335938 C 182.027344 88.335938 179.902344 86.207031 179.902344 83.589844 L 179.902344 83.539062 C 179.902344 80.917969 182.027344 78.792969 184.644531 78.792969 C 187.265625 78.792969 189.390625 80.910156 189.390625 83.539062 Z M 189.390625 100.46875 L 189.390625 163.777344 C 189.390625 166.394531 187.265625 168.523438 184.644531 168.523438 C 182.027344 168.523438 179.902344 166.394531 179.902344 163.777344 L 179.902344 100.46875 C 179.902344 97.847656 182.027344 95.722656 184.644531 95.722656 C 187.265625 95.722656 189.390625 97.847656 189.390625 100.46875 Z M 189.390625 187.46875 L 189.390625 187.519531 C 189.390625 190.136719 187.265625 192.265625 184.644531 192.265625 C 182.027344 192.265625 179.902344 190.136719 179.902344 187.519531 L 179.902344 187.46875 C 179.902344 184.847656 182.027344 182.722656 184.644531 182.722656 C 187.265625 182.722656 189.390625 184.847656 189.390625 187.46875 Z M 189.390625 291.40625 L 189.390625 291.457031 C 189.390625 294.074219 187.265625 296.203125 184.644531 296.203125 C 182.027344 296.203125 179.902344 294.074219 179.902344 291.457031 L 179.902344 291.40625 C 179.902344 288.785156 182.027344 286.660156 184.644531 286.660156 C 187.265625 286.660156 189.390625 288.785156 189.390625 291.40625 Z M 189.390625 211.21875 L 189.390625 274.527344 C 189.390625 277.144531 187.265625 279.273438 184.644531 279.273438 C 182.027344 279.273438 179.902344 277.144531 179.902344 274.527344 L 179.902344 211.21875 C 179.902344 208.597656 182.027344 206.472656 184.644531 206.472656 C 187.265625 206.472656 189.390625 208.597656 189.390625 211.21875 Z M 80.738281 182.75 C 83.359375 182.75 85.484375 184.878906 85.484375 187.496094 C 85.484375 190.117188 83.359375 192.242188 80.738281 192.242188 L 80.6875 192.242188 C 78.066406 192.242188 75.941406 190.117188 75.941406 187.496094 C 75.941406 184.878906 78.066406 182.75 80.6875 182.75 Z M 165.671875 187.496094 C 165.671875 190.117188 163.546875 192.242188 160.925781 192.242188 L 97.617188 192.242188 C 94.996094 192.242188 92.871094 190.117188 92.871094 187.496094 C 92.871094 184.878906 94.996094 182.75 97.617188 182.75 L 160.925781 182.75 C 163.546875 182.75 165.671875 184.878906 165.671875 187.496094 Z M 293.351562 187.496094 C 293.351562 190.117188 291.226562 192.242188 288.605469 192.242188 L 288.554688 192.242188 C 285.933594 192.242188 283.808594 190.117188 283.808594 187.496094 C 283.808594 184.878906 285.933594 182.75 288.554688 182.75 L 288.605469 182.75 C 291.230469 182.75 293.351562 184.878906 293.351562 187.496094 Z M 271.675781 192.242188 L 208.367188 192.242188 C 205.746094 192.242188 203.621094 190.117188 203.621094 187.496094 C 203.621094 184.878906 205.746094 182.75 208.367188 182.75 L 271.675781 182.75 C 274.296875 182.75 276.421875 184.878906 276.421875 187.496094 C 276.421875 190.117188 274.296875 192.242188 271.675781 192.242188 Z M 138.40625 110.796875 L 138.40625 136.511719 C 138.40625 139.128906 136.28125 141.257812 133.660156 141.257812 L 107.945312 141.257812 C 105.328125 141.257812 103.199219 139.128906 103.199219 136.511719 L 103.199219 110.796875 C 103.199219 108.179688 105.328125 106.050781 107.945312 106.050781 L 133.660156 106.050781 C 136.28125 106.050781 138.40625 108.179688 138.40625 110.796875 Z M 266.09375 110.796875 L 266.09375 136.511719 C 266.09375 139.128906 263.964844 141.257812 261.347656 141.257812 L 235.632812 141.257812 C 233.011719 141.257812 230.886719 139.128906 230.886719 136.511719 L 230.886719 110.796875 C 230.886719 108.179688 233.011719 106.050781 235.632812 106.050781 L 261.347656 106.050781 C 263.964844 106.050781 266.09375 108.179688 266.09375 110.796875 Z M 103.199219 264.199219 L 103.199219 238.484375 C 103.199219 235.863281 105.328125 233.738281 107.945312 233.738281 L 133.660156 233.738281 C 136.28125 233.738281 138.40625 235.863281 138.40625 238.484375 L 138.40625 264.199219 C 138.40625 266.816406 136.28125 268.941406 133.660156 268.941406 L 107.945312 268.941406 C 105.328125 268.941406 103.199219 266.816406 103.199219 264.199219 Z M 203.621094 225.542969 L 203.621094 211.222656 C 203.621094 208.605469 205.746094 206.480469 208.367188 206.480469 C 210.984375 206.480469 213.113281 208.605469 213.113281 211.222656 L 213.113281 225.542969 C 213.113281 228.160156 210.984375 230.289062 208.367188 230.289062 C 205.746094 230.289062 203.621094 228.160156 203.621094 225.542969 Z M 228.1875 215.960938 L 228.1875 225.542969 C 228.1875 228.152344 226.066406 230.265625 223.464844 230.265625 C 220.851562 230.265625 218.742188 228.144531 218.742188 225.542969 L 218.742188 211.21875 C 218.742188 208.605469 220.859375 206.492188 223.464844 206.492188 C 223.601562 206.492188 223.734375 206.5 223.875 206.515625 C 224.058594 206.492188 224.25 206.480469 224.441406 206.480469 L 241.054688 206.480469 C 243.675781 206.480469 245.800781 208.605469 245.800781 211.222656 C 245.800781 213.84375 243.675781 215.96875 241.054688 215.96875 L 228.1875 215.96875 Z M 293.351562 211.21875 L 293.351562 291.457031 C 293.351562 294.074219 291.226562 296.203125 288.605469 296.203125 C 285.984375 296.203125 283.859375 294.074219 283.859375 291.457031 L 283.859375 211.21875 C 283.859375 208.597656 285.984375 206.472656 288.605469 206.472656 C 291.230469 206.472656 293.351562 208.597656 293.351562 211.21875 Z M 203.621094 239.144531 L 203.621094 239.09375 C 203.621094 236.476562 205.746094 234.347656 208.367188 234.347656 C 210.984375 234.347656 213.113281 236.476562 213.113281 239.09375 L 213.113281 239.144531 C 213.113281 241.765625 210.984375 243.890625 208.367188 243.890625 C 205.746094 243.890625 203.621094 241.765625 203.621094 239.144531 Z M 245.792969 225.484375 L 245.792969 225.535156 C 245.792969 228.152344 243.667969 230.28125 241.046875 230.28125 C 238.429688 230.28125 236.300781 228.152344 236.300781 225.535156 L 236.300781 225.484375 C 236.300781 222.863281 238.429688 220.738281 241.046875 220.738281 C 243.667969 220.738281 245.792969 222.863281 245.792969 225.484375 Z M 278.363281 211.21875 C 278.363281 213.835938 276.238281 215.960938 273.617188 215.960938 L 257.136719 215.960938 C 254.519531 215.960938 252.394531 213.835938 252.394531 211.21875 C 252.394531 208.597656 254.519531 206.472656 257.136719 206.472656 L 273.617188 206.472656 C 276.238281 206.472656 278.363281 208.597656 278.363281 211.21875 Z M 203.621094 263.285156 L 203.621094 253.601562 C 203.621094 250.984375 205.746094 248.855469 208.367188 248.855469 C 210.984375 248.855469 213.113281 250.984375 213.113281 253.601562 L 213.113281 263.285156 C 213.113281 265.902344 210.984375 268.03125 208.367188 268.03125 C 205.746094 268.03125 203.621094 265.902344 203.621094 263.285156 Z M 273.617188 296.203125 L 257.136719 296.203125 C 254.519531 296.203125 252.394531 294.074219 252.394531 291.457031 C 252.394531 288.835938 254.519531 286.710938 257.136719 286.710938 L 273.617188 286.710938 C 276.238281 286.710938 278.363281 288.835938 278.363281 291.457031 C 278.363281 294.074219 276.238281 296.203125 273.617188 296.203125 Z M 252.394531 277.351562 C 252.394531 274.734375 254.519531 272.605469 257.136719 272.605469 L 273.617188 272.605469 C 276.238281 272.605469 278.363281 274.734375 278.363281 277.351562 C 278.363281 279.972656 276.238281 282.097656 273.617188 282.097656 L 257.136719 282.097656 C 254.519531 282.097656 252.394531 279.972656 252.394531 277.351562 Z M 251.3125 239.09375 C 251.3125 241.714844 249.183594 243.839844 246.566406 243.839844 L 235.707031 243.839844 C 233.085938 243.839844 230.960938 241.714844 230.960938 239.09375 C 230.960938 236.476562 233.085938 234.347656 235.707031 234.347656 L 246.566406 234.347656 C 249.183594 234.347656 251.3125 236.476562 251.3125 239.09375 Z M 242.878906 291.40625 L 242.878906 291.457031 C 242.878906 294.074219 240.753906 296.203125 238.132812 296.203125 C 235.515625 296.203125 233.390625 294.074219 233.390625 291.457031 L 233.390625 291.40625 C 233.390625 288.785156 235.515625 286.660156 238.132812 286.660156 C 240.761719 286.660156 242.878906 288.785156 242.878906 291.40625 Z M 242.878906 277.324219 L 242.878906 277.375 C 242.878906 279.992188 240.753906 282.121094 238.132812 282.121094 C 235.515625 282.121094 233.390625 279.992188 233.390625 277.375 L 233.390625 277.324219 C 233.390625 274.703125 235.515625 272.578125 238.132812 272.578125 C 240.761719 272.578125 242.878906 274.703125 242.878906 277.324219 Z M 227.222656 263.234375 L 227.222656 263.285156 C 227.222656 265.902344 225.097656 268.03125 222.476562 268.03125 C 219.859375 268.03125 217.730469 265.902344 217.730469 263.285156 L 217.730469 263.234375 C 217.730469 260.613281 219.859375 258.488281 222.476562 258.488281 C 225.097656 258.488281 227.222656 260.613281 227.222656 263.234375 Z M 227.222656 251.144531 C 227.222656 253.765625 225.097656 255.890625 222.476562 255.890625 C 219.859375 255.890625 217.730469 253.765625 217.730469 251.144531 C 217.730469 248.519531 219.859375 246.398438 222.476562 246.398438 C 225.097656 246.390625 227.222656 248.519531 227.222656 251.144531 Z M 227.222656 239.144531 C 227.222656 241.765625 225.097656 243.890625 222.476562 243.890625 C 219.859375 243.890625 217.730469 241.765625 217.730469 239.144531 L 217.730469 239.09375 C 217.730469 236.476562 219.859375 234.347656 222.476562 234.347656 C 225.097656 234.347656 227.222656 236.476562 227.222656 239.09375 Z M 273.609375 230.289062 C 270.992188 230.289062 268.867188 228.160156 268.867188 225.542969 L 268.867188 225.492188 C 268.867188 222.871094 270.992188 220.746094 273.609375 220.746094 C 276.230469 220.746094 278.355469 222.871094 278.355469 225.492188 L 278.355469 225.542969 C 278.355469 228.160156 276.230469 230.289062 273.609375 230.289062 Z M 248.582031 225.484375 C 248.582031 222.863281 250.707031 220.738281 253.328125 220.738281 L 260.066406 220.738281 C 262.6875 220.738281 264.8125 222.863281 264.8125 225.484375 C 264.8125 228.101562 262.6875 230.230469 260.066406 230.230469 L 253.328125 230.230469 C 250.707031 230.226562 248.582031 228.101562 248.582031 225.484375 Z M 278.363281 239.09375 C 278.363281 236.476562 276.238281 234.347656 273.617188 234.347656 L 259.507812 234.347656 C 256.886719 234.347656 254.761719 236.476562 254.761719 239.09375 L 254.761719 253.207031 C 254.761719 255.824219 256.886719 257.949219 259.507812 257.949219 L 273.617188 257.949219 C 276.238281 257.949219 278.363281 255.824219 278.363281 253.207031 Z M 268.875 248.460938 L 264.253906 248.460938 L 264.253906 243.839844 L 268.875 243.839844 Z M 251.3125 251.617188 C 251.3125 254.234375 249.183594 256.363281 246.566406 256.363281 L 235.707031 256.363281 C 233.085938 256.363281 230.960938 254.234375 230.960938 251.617188 C 230.960938 248.996094 233.085938 246.871094 235.707031 246.871094 L 246.566406 246.871094 C 249.183594 246.871094 251.3125 248.996094 251.3125 251.617188 Z M 251.3125 263.285156 C 251.3125 265.902344 249.183594 268.03125 246.566406 268.03125 L 235.707031 268.03125 C 233.085938 268.03125 230.960938 265.902344 230.960938 263.285156 C 230.960938 260.664062 233.085938 258.539062 235.707031 258.539062 L 246.566406 258.539062 C 249.183594 258.539062 251.3125 260.664062 251.3125 263.285156 Z M 259.507812 269.613281 C 256.886719 269.613281 254.761719 267.484375 254.761719 264.867188 L 254.761719 264.816406 C 254.761719 262.195312 256.886719 260.070312 259.507812 260.070312 C 262.125 260.070312 264.253906 262.195312 264.253906 264.816406 L 264.253906 264.867188 C 264.253906 267.484375 262.125 269.613281 259.507812 269.613281 Z M 273.609375 269.613281 C 270.992188 269.613281 268.867188 267.484375 268.867188 264.867188 L 268.867188 264.816406 C 268.867188 262.195312 270.992188 260.070312 273.609375 260.070312 C 276.230469 260.070312 278.355469 262.195312 278.355469 264.816406 L 278.355469 264.867188 C 278.355469 267.484375 276.230469 269.613281 273.609375 269.613281 Z M 273.609375 269.613281 " fill-opacity="1" fill-rule="nonzero"/></g></svg>